inDegrees=yes
name=ik_S56_A09_T01
DataType=double
version=3
OpenSimVersion=4.3-2021-08-27-4bc7ad9
endheader
time	pelvis_tilt	pelvis_list	pelvis_rotation	pelvis_tx	pelvis_ty	pelvis_tz	hip_flexion_r	hip_adduction_r	hip_rotation_r	knee_angle_r	knee_angle_r_beta	ankle_angle_r	subtalar_angle_r	mtp_angle_r	hip_flexion_l	hip_adduction_l	hip_rotation_l	knee_angle_l	knee_angle_l_beta	ankle_angle_l	subtalar_angle_l	mtp_angle_l	lumbar_extension	lumbar_bending	lumbar_rotation	arm_flex_r	arm_add_r	arm_rot_r	elbow_flex_r	pro_sup_r	wrist_flex_r	wrist_dev_r	arm_flex_l	arm_add_l	arm_rot_l	elbow_flex_l	pro_sup_l	wrist_flex_l	wrist_dev_l
6.779999999999943	-6.125057435406845	-4.950938102105611	30.65157443525297	0	0.9399999999999999	0	32.18918513961653	-12.25749015150713	-9.492455739788042	48.1758926829913	0.8408279474056429	0	0	0	32.18918513961653	-12.25749015150713	-9.492455739788042	48.1758926829913	0.8408279474056429	0	0	0	-5.769647992414354	-1.813211935716053	9.565557510100003	57.9400886945239	-17.6007504322086	20.0764493616909	58.31457359211159	118.8783011237218	0	0	60.07216066913264	2.907223755702841	19.75993297565613	49.61642823180816	102.3033537971516	0	0
6.799999999999943	-6.128849025716557	-4.962618595110934	30.66768081284335	0	0.9399999999999999	0	32.19273262691653	-12.25538371109609	-9.492759670816884	48.17714714472947	0.8408498418933142	0	0	0	32.19273262691653	-12.25538371109609	-9.492759670816884	48.17714714472947	0.8408498418933142	0	0	0	-5.780490491064096	-1.818621194420135	9.546205474196896	57.9978676665887	-17.49922089666826	20.10174801402233	58.05441580811851	118.7236639859003	0	0	60.15035415568543	2.829823605795304	19.86352856208632	49.59630668252468	102.1873038886387	0	0
6.819999999999943	-6.156685610222421	-4.947649693048118	30.6555787601255	0	0.9399999999999999	0	32.19612243490872	-12.25337467462401	-9.493049809091252	48.17834668200007	0.8408707777681866	0	0	0	32.19612243490872	-12.25337467462401	-9.493049809091252	48.17834668200007	0.8408707777681866	0	0	0	-5.795904707601665	-1.793993380940849	9.565918512615534	58.03650629574818	-17.54298833245362	20.14196876320382	58.00380073794398	118.4201877959898	0	0	60.21865709151673	2.839383861612343	19.97693268808899	49.46938235953375	101.9207097028785	0	0
6.839999999999942	-6.184199883144958	-4.944001400113874	30.69683533567439	0	0.9399999999999999	0	32.20044853151719	-12.25078871802592	-9.493422100638188	48.1798648433766	0.8408972746827837	0	0	0	32.20044853151719	-12.25078871802592	-9.493422100638188	48.1798648433766	0.8408972746827837	0	0	0	-5.820090116884235	-1.773101267528243	9.542157723449234	58.11967869785587	-17.39916126473392	20.28951498171826	57.89873635232877	118.6609726678265	0	0	60.31034101432206	2.815746195134118	20.06700583460676	49.46430422328185	101.7783022981811	0	0
6.859999999999942	-6.194638051835003	-4.941129721385976	30.72410619559936	0	0.9399999999999999	0	32.20251437132733	-12.24955786223819	-9.493599525631371	48.18059189862552	0.8409099641907212	0	0	0	32.20251437132733	-12.24955786223819	-9.493599525631371	48.18059189862552	0.8409099641907212	0	0	0	-5.827787004087484	-1.765371593615588	9.543058359349574	58.19016255312125	-17.34684045237731	20.30974520774036	57.89870179517586	118.707780030434	0	0	60.35187752029766	2.777787266852166	20.13145303770745	49.46916249213245	101.7103328376067	0	0
6.879999999999941	-6.220804654707703	-4.943766143257707	30.75378642311048	0	0.9399999999999999	0	32.20559300889231	-12.24773032746494	-9.493863340337903	48.18167880942734	0.8409289343628885	0	0	0	32.20559300889231	-12.24773032746494	-9.493863340337903	48.18167880942734	0.8409289343628885	0	0	0	-5.852959344826428	-1.752339276301749	9.530775199625577	58.35881876430876	-17.31547453796922	20.33364362154054	57.86044621677348	118.90282105881	0	0	60.42798314171691	2.71313434188829	20.1710139151895	49.50495253878525	101.5844576137585	0	0
6.899999999999941	-6.267871577427844	-4.933732501939019	30.82295499578376	0	0.9399999999999999	0	32.2085580376733	-12.24597020367459	-9.494117444612339	48.18272513157633	0.840947196129425	0	0	0	32.2085580376733	-12.24597020367459	-9.494117444612339	48.18272513157633	0.840947196129425	0	0	0	-5.88832451895096	-1.720383558157452	9.538950578220375	58.57202000376629	-17.28732248201937	20.33886736368003	57.78122539388113	119.2493357935778	0	0	60.48557435978573	2.738578001155168	20.24142558552075	49.45333275762228	101.8063837346305	0	0
6.91999999999994	-6.285183464141943	-4.924630088033173	30.86883019581764	0	0.9399999999999999	0	32.21356809264999	-12.24298375485014	-9.494547994819976	48.18448477740106	0.8409779077427355	0	0	0	32.21356809264999	-12.24298375485014	-9.494547994819976	48.18448477740106	0.8409779077427355	0	0	0	-5.901248818694297	-1.699365935819085	9.510039993432057	58.71665003039922	-17.0940487250064	20.38946529368809	57.60516894329928	119.6554893084768	0	0	60.50949359385852	2.784084618804862	20.20434768101488	49.42709324516758	101.8460910875879	0	0
6.93999999999994	-6.296749284111267	-4.908289501157231	30.94426643776827	0	0.9399999999999999	0	32.21733748344518	-12.24073310206551	-9.494872316473405	48.18580552109044	0.8410009590686902	0	0	0	32.21733748344518	-12.24073310206551	-9.494872316473405	48.18580552109044	0.8410009590686902	0	0	0	-5.905513399667853	-1.674816364047626	9.478956716480106	58.95495975082796	-16.88300949097435	20.78474205782168	57.34905301739327	119.8639513608201	0	0	60.52336227367402	2.758271857260411	20.21699213002483	49.4600603852129	101.7718715096445	0	0
6.95999999999994	-6.307507228375766	-4.905025075126981	30.98260884999355	0	0.9399999999999999	0	32.22234465256863	-12.243719339581	-9.494850248450968	48.18829380959639	0.8410443878958584	0	0	0	32.22234465256863	-12.243719339581	-9.494850248450968	48.18829380959639	0.8410443878958584	0	0	0	-5.913955087669472	-1.665550749606883	9.47233995592217	58.9965327302985	-16.91769443248573	20.80130568354	57.35309118886259	120.0937532161463	0	0	60.52830530016307	2.795658147904045	20.23389841232654	49.44429047450814	101.7750313814189	0	0
6.979999999999939	-6.312853216187499	-4.904027122819982	31.04049999219658	0	0.9399999999999999	0	32.22662345919024	-12.24115744493032	-9.495218855522339	48.18979059506689	0.8410705117305147	0	0	0	32.22662345919024	-12.24115744493032	-9.495218855522339	48.18979059506689	0.8410705117305147	0	0	0	-5.919231839983977	-1.66034921627582	9.46051642439085	59.06979074264385	-16.83565739321765	21.09934273153066	57.24628616832921	120.0538317844224	0	0	60.53145067755634	2.712058232116192	20.24472677863204	49.5221598784872	101.7003144596978	0	0
6.999999999999939	-6.314849588860915	-4.893312266302392	31.11633501941685	0	0.9399999999999999	0	32.22982951584149	-12.2392444581182	-9.495494468847797	48.19091543369536	0.8410901438681351	0	0	0	32.22982951584149	-12.2392444581182	-9.495494468847797	48.19091543369536	0.8410901438681351	0	0	0	-5.916363632330648	-1.648840568073709	9.450923499679208	59.11020990561544	-16.78818340388894	21.45292238995498	57.20670015573299	120.237215070083	0	0	60.52727684066787	2.733140083392168	20.24637217079353	49.54153096454084	101.6759110506845	0	0
7.019999999999938	-6.319470364234081	-4.905196981461222	31.23858424071297	0	0.9399999999999999	0	32.23422668745697	-12.23661864029085	-9.495872718940698	48.192455968858	0.8411170312789659	0	0	0	32.23422668745697	-12.23661864029085	-9.495872718940698	48.192455968858	0.8411170312789659	0	0	0	-5.932602555498301	-1.646058292571453	9.377340868607581	59.03621894646442	-16.42217257074051	22.20554396659184	56.87729453998558	119.7466803571078	0	0	60.57061744603865	2.717601453395693	20.26133703261237	49.58169665140467	102.0567027232509	0	0
7.039999999999938	-6.318159554660336	-4.911731669287952	31.30909618690247	0	0.9399999999999999	0	32.23843289517748	-12.2341200576832	-9.496233373603529	48.19393643779627	0.8411428703364122	0	0	0	32.23843289517748	-12.2341200576832	-9.496233373603529	48.19393643779627	0.8411428703364122	0	0	0	-5.936699604704173	-1.64939130652717	9.355849085075645	59.0377655099984	-16.44382832675673	22.20752126639303	56.67994285284235	119.2228944787624	0	0	60.64705236623153	2.678659912628591	20.13687585206661	49.5679206723522	102.1633021577914	0	0
7.059999999999937	-6.330180675006682	-4.911834742529122	31.38190436785494	0	0.9399999999999999	0	32.24277200764593	-12.23153201237981	-9.496606442881166	48.19545642004538	0.8411693990312311	0	0	0	32.24277200764593	-12.23153201237981	-9.496606442881166	48.19545642004538	0.8411693990312311	0	0	0	-5.949585960840913	-1.639180905514019	9.32798832143048	58.89418354401418	-16.28969976865018	22.56529226113293	56.53180584208778	118.8506771068402	0	0	60.67246904504368	2.690742635920046	20.07241320839325	49.57731358621346	102.1870179232392	0	0
7.079999999999937	-6.334671092533673	-4.917421370315619	31.44632639134208	0	0.9399999999999999	0	32.24859174912667	-12.22805873141696	-9.497107091560677	48.1974921114542	0.8412049285488695	0	0	0	32.24859174912667	-12.22805873141696	-9.497107091560677	48.1974921114542	0.8412049285488695	0	0	0	-5.957105936414041	-1.641137529081473	9.323311719173727	58.80110224948224	-16.30395480748419	22.77377187507566	56.44593655190617	118.5013264645586	0	0	60.67540762229327	2.658524777736038	19.97527291021366	49.64446019214232	102.2326987320886	0	0
